<svg width="220" height="220" viewBox="0 0 220 220" fill="none" xmlns="http://www.w3.org/2000/svg">
<path d="M130.625 36.74C130.625 38.5634 131.349 40.312 132.639 41.6014C133.928 42.8907 135.677 43.615 137.5 43.615C139.323 43.615 141.072 42.8907 142.361 41.6014C143.651 40.312 144.375 38.5634 144.375 36.74V11.5912C144.375 9.76788 143.651 8.0192 142.361 6.72989C141.072 5.44058 139.323 4.71625 137.5 4.71625C135.677 4.71625 133.928 5.44058 132.639 6.72989C131.349 8.0192 130.625 9.76788 130.625 11.5912V36.74ZM192.5 37.2212C193.752 35.9246 194.445 34.188 194.43 32.3854C194.414 30.5828 193.691 28.8584 192.416 27.5837C191.142 26.3091 189.417 25.586 187.615 25.5704C185.812 25.5547 184.075 26.2477 182.779 27.5L165 45.2787C164.343 45.9129 163.82 46.6716 163.459 47.5103C163.099 48.3491 162.909 49.2513 162.901 50.1641C162.894 51.077 163.067 51.9823 163.413 52.8272C163.759 53.6721 164.269 54.4397 164.915 55.0852C165.56 55.7307 166.328 56.2412 167.173 56.5869C168.018 56.9326 168.923 57.1065 169.836 57.0986C170.749 57.0907 171.651 56.901 172.49 56.5407C173.328 56.1804 174.087 55.6566 174.721 55L192.5 37.2212ZM100.279 55C100.913 55.6566 101.672 56.1804 102.51 56.5407C103.349 56.901 104.251 57.0907 105.164 57.0986C106.077 57.1065 106.982 56.9326 107.827 56.5869C108.672 56.2412 109.44 55.7307 110.085 55.0852C110.731 54.4397 111.241 53.6721 111.587 52.8272C111.933 51.9823 112.107 51.077 112.099 50.1641C112.091 49.2513 111.901 48.3491 111.541 47.5103C111.18 46.6716 110.657 45.9129 110 45.2787L92.2213 27.5C90.9246 26.2477 89.188 25.5547 87.3854 25.5704C85.5828 25.586 83.8585 26.3091 82.5838 27.5837C81.3091 28.8584 80.5861 30.5828 80.5704 32.3854C80.5547 34.188 81.2477 35.9246 82.5 37.2212L100.279 55ZM91.74 89.375C93.5634 89.375 95.3121 88.6507 96.6014 87.3614C97.8907 86.072 98.615 84.3234 98.615 82.5C98.615 80.6766 97.8907 78.928 96.6014 77.6386C95.3121 76.3493 93.5634 75.625 91.74 75.625H66.5913C64.7679 75.625 63.0192 76.3493 61.7299 77.6386C60.4406 78.928 59.7163 80.6766 59.7163 82.5C59.7163 84.3234 60.4406 86.072 61.7299 87.3614C63.0192 88.6507 64.7679 89.375 66.5913 89.375H91.74ZM208.409 89.375C210.232 89.375 211.981 88.6507 213.27 87.3614C214.559 86.072 215.284 84.3234 215.284 82.5C215.284 80.6766 214.559 78.928 213.27 77.6386C211.981 76.3493 210.232 75.625 208.409 75.625H183.26C181.437 75.625 179.688 76.3493 178.399 77.6386C177.109 78.928 176.385 80.6766 176.385 82.5C176.385 84.3234 177.109 86.072 178.399 87.3614C179.688 88.6507 181.437 89.375 183.26 89.375H208.409ZM182.779 137.5C183.413 138.157 184.172 138.68 185.01 139.041C185.849 139.401 186.751 139.591 187.664 139.599C188.577 139.607 189.482 139.433 190.327 139.087C191.172 138.741 191.94 138.231 192.585 137.585C193.231 136.94 193.741 136.172 194.087 135.327C194.433 134.482 194.607 133.577 194.599 132.664C194.591 131.751 194.401 130.849 194.041 130.01C193.68 129.172 193.157 128.413 192.5 127.779L174.721 110C174.087 109.343 173.328 108.82 172.49 108.459C171.651 108.099 170.749 107.909 169.836 107.901C168.923 107.893 168.018 108.067 167.173 108.413C166.328 108.759 165.56 109.269 164.915 109.915C164.269 110.56 163.759 111.328 163.413 112.173C163.067 113.018 162.894 113.923 162.901 114.836C162.909 115.749 163.099 116.651 163.459 117.49C163.82 118.328 164.343 119.087 165 119.721L182.779 137.5ZM130.625 153.409C130.625 155.232 131.349 156.981 132.639 158.27C133.928 159.559 135.677 160.284 137.5 160.284C139.323 160.284 141.072 159.559 142.361 158.27C143.651 156.981 144.375 155.232 144.375 153.409V128.26C144.375 126.437 143.651 124.688 142.361 123.399C141.072 122.109 139.323 121.385 137.5 121.385C135.677 121.385 133.928 122.109 132.639 123.399C131.349 124.688 130.625 126.437 130.625 128.26V153.409ZM156.118 83.325C157.402 82.0363 158.124 80.2909 158.124 78.4712C158.124 76.6516 157.402 74.9062 156.118 73.6175L146.383 63.8825C145.093 62.5936 143.345 61.8696 141.522 61.8696C139.699 61.8696 137.951 62.5936 136.661 63.8825L118.883 81.675C117.594 82.9642 116.87 84.7126 116.87 86.5356C116.87 88.3586 117.594 90.107 118.883 91.3962L128.618 101.131C129.907 102.42 131.655 103.144 133.478 103.144C135.301 103.144 137.05 102.42 138.339 101.131L156.118 83.3525V83.325ZM114.868 124.575C116.152 123.286 116.874 121.541 116.874 119.721C116.874 117.902 116.152 116.156 114.868 114.867L105.133 105.132C103.843 103.844 102.095 103.12 100.272 103.12C98.4489 103.12 96.7005 103.844 95.4113 105.132L8.88254 191.675C7.59367 192.964 6.86963 194.713 6.86963 196.536C6.86963 198.359 7.59367 200.107 8.88254 201.396L18.6175 211.131C19.9068 212.42 21.6552 213.144 23.4782 213.144C25.3012 213.144 27.0495 212.42 28.3388 211.131L114.868 124.575Z" fill="#FCEAD1"/>
</svg>
