<svg width="24" height="24" viewBox="0 0 24 24" fill="none" xmlns="http://www.w3.org/2000/svg">
<g clip-path="url(#clip0_118_31)">
<path d="M240 136V200C240 204.243 238.314 208.313 235.314 211.314C232.313 214.314 228.243 216 224 216H32C27.7565 216 23.6869 214.314 20.6863 211.314C17.6857 208.313 16 204.243 16 200V136C16 131.757 17.6857 127.687 20.6863 124.686C23.6869 121.686 27.7565 120 32 120H72C74.1217 120 76.1566 120.843 77.6569 122.343C79.1571 123.843 80 125.878 80 128C80 130.122 79.1571 132.157 77.6569 133.657C76.1566 135.157 74.1217 136 72 136H32V200H224V136H184C181.878 136 179.843 135.157 178.343 133.657C176.843 132.157 176 130.122 176 128C176 125.878 176.843 123.843 178.343 122.343C179.843 120.843 181.878 120 184 120H224C228.243 120 232.313 121.686 235.314 124.686C238.314 127.687 240 131.757 240 136ZM122.34 133.66C123.083 134.404 123.965 134.994 124.936 135.396C125.908 135.799 126.949 136.006 128 136.006C129.051 136.006 130.092 135.799 131.064 135.396C132.035 134.994 132.917 134.404 133.66 133.66L181.66 85.66C183.161 84.1589 184.004 82.1229 184.004 80C184.004 77.8771 183.161 75.8411 181.66 74.34C180.159 72.8389 178.123 71.9956 176 71.9956C173.877 71.9956 171.841 72.8389 170.34 74.34L136 108.69V24C136 21.8783 135.157 19.8434 133.657 18.3431C132.157 16.8429 130.122 16 128 16C125.878 16 123.843 16.8429 122.343 18.3431C120.843 19.8434 120 21.8783 120 24V108.69L85.66 74.34C84.1589 72.8389 82.1229 71.9956 80 71.9956C77.8771 71.9956 75.8411 72.8389 74.34 74.34C72.8389 75.8411 71.9956 77.8771 71.9956 80C71.9956 82.1229 72.8389 84.1589 74.34 85.66L122.34 133.66ZM200 168C200 165.627 199.296 163.307 197.978 161.333C196.659 159.36 194.785 157.822 192.592 156.913C190.399 156.005 187.987 155.768 185.659 156.231C183.331 156.694 181.193 157.837 179.515 159.515C177.837 161.193 176.694 163.331 176.231 165.659C175.768 167.987 176.005 170.399 176.913 172.592C177.822 174.785 179.36 176.659 181.333 177.978C183.307 179.296 185.627 180 188 180C191.183 180 194.235 178.736 196.485 176.485C198.736 174.235 200 171.183 200 168Z" fill="#D6F2EC"/>
<path d="M12 16L7 11L8.4 9.55L11 12.15V4H13V12.15L15.6 9.55L17 11L12 16ZM6 20C5.45 20 4.979 19.804 4.587 19.412C4.195 19.02 3.99934 18.5493 4 18V15H6V18H18V15H20V18C20 18.55 19.804 19.021 19.412 19.413C19.02 19.805 18.5493 20.0007 18 20H6Z" fill="#D6F2EC"/>
<path d="M240 136V200C240 204.243 238.314 208.313 235.314 211.314C232.313 214.314 228.243 216 224 216H32C27.7565 216 23.6869 214.314 20.6863 211.314C17.6857 208.313 16 204.243 16 200V136C16 131.757 17.6857 127.687 20.6863 124.686C23.6869 121.686 27.7565 120 32 120H72C74.1217 120 76.1566 120.843 77.6569 122.343C79.1571 123.843 80 125.878 80 128C80 130.122 79.1571 132.157 77.6569 133.657C76.1566 135.157 74.1217 136 72 136H32V200H224V136H184C181.878 136 179.843 135.157 178.343 133.657C176.843 132.157 176 130.122 176 128C176 125.878 176.843 123.843 178.343 122.343C179.843 120.843 181.878 120 184 120H224C228.243 120 232.313 121.686 235.314 124.686C238.314 127.687 240 131.757 240 136ZM122.34 133.66C123.083 134.404 123.965 134.994 124.936 135.396C125.908 135.799 126.949 136.006 128 136.006C129.051 136.006 130.092 135.799 131.064 135.396C132.035 134.994 132.917 134.404 133.66 133.66L181.66 85.66C183.161 84.1589 184.004 82.1229 184.004 80C184.004 77.8771 183.161 75.8411 181.66 74.34C180.159 72.8389 178.123 71.9956 176 71.9956C173.877 71.9956 171.841 72.8389 170.34 74.34L136 108.69V24C136 21.8783 135.157 19.8434 133.657 18.3431C132.157 16.8429 130.122 16 128 16C125.878 16 123.843 16.8429 122.343 18.3431C120.843 19.8434 120 21.8783 120 24V108.69L85.66 74.34C84.1589 72.8389 82.1229 71.9956 80 71.9956C77.8771 71.9956 75.8411 72.8389 74.34 74.34C72.8389 75.8411 71.9956 77.8771 71.9956 80C71.9956 82.1229 72.8389 84.1589 74.34 85.66L122.34 133.66ZM200 168C200 165.627 199.296 163.307 197.978 161.333C196.659 159.36 194.785 157.822 192.592 156.913C190.399 156.005 187.987 155.768 185.659 156.231C183.331 156.694 181.193 157.837 179.515 159.515C177.837 161.193 176.694 163.331 176.231 165.659C175.768 167.987 176.005 170.399 176.913 172.592C177.822 174.785 179.36 176.659 181.333 177.978C183.307 179.296 185.627 180 188 180C191.183 180 194.235 178.736 196.485 176.485C198.736 174.235 200 171.183 200 168Z" fill="#D6F2EC"/>
</g>
<defs>
<clipPath id="clip0_118_31">
<rect width="24" height="24" fill="white"/>
</clipPath>
</defs>
</svg>
