<svg width="12" height="12" viewBox="0 0 12 12" fill="none" xmlns="http://www.w3.org/2000/svg">
<path d="M6 2C8.2095 2 10 3.791 10 6C10 8.209 8.2095 10 6 10C3.7905 10 2 8.209 2 6C2 3.791 3.7905 2 6 2ZM4.1465 7.1465C4.05275 7.24025 4.00008 7.36741 4.00008 7.5C4.00008 7.63259 4.05275 7.75975 4.1465 7.8535C4.24025 7.94725 4.36741 7.99992 4.5 7.99992C4.63259 7.99992 4.75975 7.94725 4.8535 7.8535L6 6.707L7.1465 7.8535C7.19283 7.90009 7.24791 7.93707 7.30857 7.9623C7.36924 7.98753 7.4343 8.00052 7.5 8.00052C7.5657 8.00052 7.63076 7.98753 7.69143 7.9623C7.75209 7.93707 7.80717 7.90009 7.8535 7.8535C7.89997 7.80711 7.93684 7.752 7.962 7.69135C7.98715 7.63069 8.0001 7.56567 8.0001 7.5C8.0001 7.43433 7.98715 7.36931 7.962 7.30865C7.93684 7.248 7.89997 7.19289 7.8535 7.1465L6.707 6L7.8535 4.8535C7.94725 4.75975 7.99992 4.63259 7.99992 4.5C7.99992 4.36741 7.94725 4.24025 7.8535 4.1465C7.75975 4.05275 7.63259 4.00008 7.5 4.00008C7.36741 4.00008 7.24025 4.05275 7.1465 4.1465L6 5.293L4.8535 4.1465C4.75975 4.05275 4.63259 4.00008 4.5 4.00008C4.36741 4.00008 4.24025 4.05275 4.1465 4.1465C4.05275 4.24025 4.00008 4.36741 4.00008 4.5C4.00008 4.63259 4.05275 4.75975 4.1465 4.8535L5.293 6L4.1465 7.1465Z" fill="#D6F2EC"/>
</svg>
